<?xml version="1.0" encoding="UTF-8"?>
<svg xmlns="http://www.w3.org/2000/svg" width="1200" height="780" viewBox="0 0 1200 780">
  <defs>
    <style type="text/css"><![CDATA[
      .t { font: bold 15px "Times New Roman", Times, serif; fill: #111; }
      .n { font: 12px "Times New Roman", Times, serif; fill: #222; }
      .s { font: 10px "Times New Roman", Times, serif; fill: #444; }
      .p { fill: #e8f4fc; stroke: #000; stroke-width: 2; }
      .store { fill: none; stroke: #000; stroke-width: 2; }
      .ext { fill: #fff8e6; stroke: #000; stroke-width: 2; }
      .f { stroke: #333; stroke-width: 1.2; fill: none; marker-end: url(#a); }
    ]]></style>
    <marker id="a" markerWidth="8" markerHeight="8" refX="7" refY="4" orient="auto"><polygon points="0 0,8 4,0 8" fill="#333"/></marker>
  </defs>
  <text x="600" y="32" text-anchor="middle" class="t">DFD. 5:><?>78F8O ?@>F5AA0 «!:;04A:>9 CGQB» (C@>25=L 1)</text>

  <!-- Data stores (open rectangles) -->
  <g transform="translate(480,520)">
    <line x1="0" y1="0" x2="0" y2="50" class="store"/>
    <line x1="120" y1="0" x2="120" y2="50" class="store"/>
    <line x1="0" y1="0" x2="120" y2="0" class="store"/>
    <line x1="0" y1="50" x2="120" y2="50" class="store"/>
    <text x="60" y="70" text-anchor="middle" class="n">D1 ><5=:;0BC@0</text>
  </g>
  <g transform="translate(700,520)">
    <line x1="0" y1="0" x2="0" y2="50" class="store"/>
    <line x1="120" y1="0" x2="120" y2="50" class="store"/>
    <line x1="0" y1="0" x2="120" y2="0" class="store"/>
    <line x1="0" y1="50" x2="120" y2="50" class="store"/>
    <text x="60" y="70" text-anchor="middle" class="n">D2 AB0B:8</text>
  </g>
  <g transform="translate(260,520)">
    <line x1="0" y1="0" x2="0" y2="50" class="store"/>
    <line x1="120" y1="0" x2="120" y2="50" class="store"/>
    <line x1="0" y1="0" x2="120" y2="0" class="store"/>
    <line x1="0" y1="50" x2="120" y2="50" class="store"/>
    <text x="60" y="70" text-anchor="middle" class="n">D3 ?5@0F88</text>
  </g>

  <!-- Processes -->
  <circle cx="200" cy="200" r="55" class="p"/>
  <text x="200" y="195" text-anchor="middle" class="n">1.1</text>
  <text x="200" y="215" text-anchor="middle" class="n">@8Q<:0</text>

  <circle cx="420" cy="200" r="55" class="p"/>
  <text x="420" y="195" text-anchor="middle" class="n">1.2</text>
  <text x="420" y="215" text-anchor="middle" class="n">1=>2;5=85</text>
  <text x="420" y="230" text-anchor="middle" class="s">>AB0B:>2</text>

  <circle cx="640" cy="200" r="55" class="p"/>
  <text x="640" y="195" text-anchor="middle" class="n">1.3</text>
  <text x="640" y="215" text-anchor="middle" class="n">B3@C7:0</text>

  <circle cx="860" cy="200" r="55" class="p"/>
  <text x="860" y="195" text-anchor="middle" class="n">1.4</text>
  <text x="860" y="215" text-anchor="middle" class="n">=25=B0@870F8O</text>

  <circle cx="530" cy="360" r="55" class="p"/>
  <text x="530" y="355" text-anchor="middle" class="n">1.5</text>
  <text x="530" y="375" text-anchor="middle" class="n">BGQBK</text>

  <!-- External -->
  <rect x="40" y="170" width="90" height="60" class="ext" rx="3"/>
  <text x="85" y="205" text-anchor="middle" class="n">=5H=.</text>
  <path d="M 130 200 L 145 200" class="f"/>

  <rect x="1040" y="170" width="90" height="60" class="ext" rx="3"/>
  <text x="1085" y="205" text-anchor="middle" class="n">>;L7.</text>

  <!-- Flows simplified -->
  <path d="M 255 200 L 365 200" class="f"/>
  <path d="M 475 200 L 585 200" class="f"/>
  <path d="M 695 200 L 805 200" class="f"/>
  <path d="M 200 255 L 320 470" class="f"/>
  <path d="M 420 255 L 520 470" class="f"/>
  <path d="M 640 255 L 580 470" class="f"/>
  <path d="M 860 255 L 760 470" class="f"/>
  <path d="M 530 415 L 530 500" class="f"/>

  <text x="600" y="740" text-anchor="middle" class="s">>B>:8 40==KE <564C ?@>F5AA0<8 8 E@0=8;8I0<8 D1D3 A>>B25BAB2CNB >?5@0F8O< CRUD 8 6C@=0;8@>20=8N 42865=89.</text>
</svg>
